# xmcd
#
# Track frame offsets:
#	150
#	12447
#	25342
#	41802
#	60315
#	74632
#	90052
#	110422
#	127532
#	143542
#	160129
#	173220
#	185725
#	200192
#	218655
#	233112
#	249477
#
# Disc length: 3518 seconds
#
# Revision: 2
# Processed by: cddbd v1.5.2PL0 Copyright (c) Steve Scherf et al.
# Submitted via: audiograbber 1.83.01
#
DISCID=e40dbc11
DTITLE=Melinda Schneider - My Oxygen
DYEAR=2000
DGENRE=Country
TTITLE0=TV Or Me
TTITLE1=Look Me Up
TTITLE2=Simple To Say
TTITLE3=From The Inside Out
TTITLE4=Count To 3
TTITLE5=3 Rings
TTITLE6=My Oxygen
TTITLE7=Life's Too Long To Live Like This
TTITLE8=Rapunzel
TTITLE9=Give Us A Happy Home
TTITLE10=Smack Dab
TTITLE11=Some Girls
TTITLE12=Heart Of A Woman
TTITLE13=Watching Over Me
TTITLE14=Love's Out To Get Me
TTITLE15=Love Away The Night (Duet with Adam Brand)
TTITLE16=(Hey You) Count To 3 (James Roche Remix)
EXTD=YEAR: 2000 ID3G:   2
EXTT0=
EXTT1=
EXTT2=
EXTT3=
EXTT4=
EXTT5=
EXTT6=
EXTT7=
EXTT8=
EXTT9=
EXTT10=
EXTT11=
EXTT12=
EXTT13=
EXTT14=
EXTT15=
EXTT16=
PLAYORDER=
